<svg xmlns="http://www.w3.org/2000/svg" fill="none" viewBox="0 0 23 15" height="15" width="23">
<g clip-path="url(#clip0_7668_162116)">
<path fill="#0071CE" d="M19.7404 11.8473L20.6983 12.9157H22.5035V13.5052C22.5035 14.021 22.0983 14.4263 21.5825 14.4263H1.83511C1.31933 14.4263 0.914062 14.021 0.914062 13.5052V1.53153C0.914062 1.01574 1.31933 0.610474 1.83511 0.610474H21.5825C22.0983 0.610474 22.5035 1.01574 22.5035 1.53153V2.37889H20.2562L19.7404 3.81574L19.2246 2.37889H16.2772V4.29468L15.4298 2.37889H13.072L10.6404 7.94205H12.593V12.9157H16.793H18.7456L19.7404 11.8473ZM22.5035 12.3263H20.9562L19.7035 10.9263L18.4141 12.3263H16.9035L18.9667 10.1894L16.9035 8.01574H18.4509L19.7035 9.41573L20.993 8.01574H22.5035L20.4772 10.1526L22.5035 12.3263ZM16.9035 8.01574H13.2562V12.3263H16.9035L16.9035 11.3315H14.4351V10.6684H16.8667V9.67363H14.4351V9.01047H16.9035L16.9035 8.01574ZM22.4667 7.38939H21.3614V4.36833L20.2193 7.38939H19.1877L18.0825 4.36833V7.38939H16.9404L16.9404 7.38941H15.6141L15.2456 6.54204H13.2562L12.8878 7.38941H11.5983L13.5141 3.07888H15.0246L16.9035 7.30648V3.07886H18.7456L19.7404 5.76833L20.6983 3.07886L22.4667 3.04202V7.38939ZM13.6614 5.5473L14.2509 4.1473L14.8404 5.5473H13.6614ZM22.5035 11.221L21.4351 10.042L22.5035 8.8631V11.221Z" clip-rule="evenodd" fill-rule="evenodd"></path>
</g>
<defs>
<clipPath id="clip0_7668_162116">
<rect transform="translate(0.65625 0.499969)" fill="white" height="14" width="22.1053"></rect>
</clipPath>
</defs>
</svg>
