<svg xmlns="http://www.w3.org/2000/svg" fill="none" viewBox="0 0 34 15" height="15" width="34">
<g clip-path="url(#clip0_7668_162125)">
<path fill="#FFB3C7" d="M29.8016 0.899994H4.45117C2.30352 0.899994 0.5625 2.64101 0.5625 4.78867V10.4113C0.5625 12.559 2.30352 14.3 4.45117 14.3H29.8016C31.9493 14.3 33.6903 12.559 33.6903 10.4113V4.78867C33.6903 2.64101 31.9493 0.899994 29.8016 0.899994Z"></path>
<path fill="black" d="M4.57812 4.78867H5.84311V10.4129H4.57812V4.78867ZM9.06598 4.78868H7.80325C7.8052 5.29507 7.68805 5.79482 7.46124 6.24759C7.23444 6.70035 6.90435 7.09344 6.49761 7.39511L5.99738 7.76978L7.93579 10.4131H9.52944L7.74594 7.98087C8.16655 7.56283 8.49986 7.06533 8.72648 6.51732C8.95309 5.9693 9.0685 5.3817 9.06598 4.78868ZM9.90587 4.78974H11.1243V10.4113H9.90587V4.78974ZM26.0499 6.4184C26.4225 6.43925 26.7824 6.5613 27.0907 6.77143V6.52271H28.255V10.4113H27.0907V10.1628C26.7824 10.373 26.4225 10.495 26.0499 10.5159C25.6774 10.5367 25.3061 10.4556 24.9762 10.2811C24.6464 10.1067 24.3703 9.84567 24.1777 9.52603C23.9851 9.20639 23.8834 8.84029 23.8834 8.46713C23.8834 8.09396 23.9851 7.72787 24.1777 7.40823C24.3703 7.08859 24.6464 6.82752 24.9762 6.65311C25.3061 6.4787 25.6774 6.39755 26.0499 6.4184ZM25.4903 9.27344C25.648 9.38972 25.8362 9.45724 26.0318 9.46764C26.3044 9.47467 26.5685 9.37327 26.7664 9.18569C26.9642 8.99811 27.0795 8.73969 27.0869 8.46718C27.0869 8.27129 27.0295 8.0797 26.9218 7.9161C26.814 7.75251 26.6607 7.62409 26.4807 7.54672C26.3008 7.46936 26.1021 7.44645 25.9092 7.48083C25.7164 7.51521 25.5378 7.60537 25.3957 7.74016C25.2535 7.87494 25.154 8.04844 25.1094 8.23919C25.0649 8.42994 25.0772 8.62957 25.1449 8.81339C25.2126 8.99721 25.3327 9.15716 25.4903 9.27344ZM21.8158 6.41806C21.5869 6.40453 21.3581 6.44686 21.1492 6.54141C20.9403 6.63596 20.7575 6.77989 20.6166 6.96079V6.52288H19.4571V10.4113H20.6305V8.3678C20.6215 8.25041 20.6379 8.13245 20.6785 8.02195C20.7191 7.91145 20.7831 7.811 20.866 7.72742C20.9489 7.64384 21.0489 7.5791 21.1591 7.5376C21.2692 7.49609 21.3871 7.4788 21.5045 7.48689C22.0162 7.48689 22.3104 7.7926 22.3104 8.35975V10.4113H23.4734V7.93846C23.4733 7.03347 22.7538 6.41806 21.8158 6.41806ZM13.7671 6.4184C14.1396 6.43925 14.4995 6.5613 14.8079 6.77143V6.52271H15.9721V10.4113H14.8079V10.1628C14.4995 10.373 14.1396 10.495 13.7671 10.5159C13.3945 10.5367 13.0233 10.4556 12.6934 10.2811C12.3635 10.1067 12.0874 9.84567 11.8948 9.52603C11.7022 9.20639 11.6005 8.84029 11.6005 8.46713C11.6005 8.09396 11.7022 7.72787 11.8948 7.40823C12.0874 7.08859 12.3635 6.82752 12.6934 6.65311C13.0233 6.4787 13.3945 6.39755 13.7671 6.4184ZM13.2074 9.2735C13.365 9.38976 13.5533 9.45726 13.7489 9.46764C14.0214 9.47466 14.2856 9.37324 14.4834 9.18566C14.6812 8.99809 14.7964 8.73968 14.8039 8.46718C14.8039 8.27128 14.7465 8.07969 14.6387 7.91609C14.531 7.75249 14.3776 7.62407 14.1976 7.54671C14.0177 7.46935 13.819 7.44645 13.6261 7.48083C13.4333 7.51522 13.2547 7.6054 13.1126 7.74019C12.9704 7.87499 12.8709 8.0485 12.8264 8.23926C12.7818 8.43002 12.7942 8.62966 12.8619 8.81348C12.9296 8.9973 13.0497 9.15723 13.2074 9.2735ZM17.7732 7.02921V6.52272H16.5812V10.4114H17.7758V8.59596C17.7758 7.98339 18.4397 7.65414 18.9005 7.65414L18.9076 7.65438L18.9099 7.6545L18.9143 7.65463V6.52295C18.6984 6.51716 18.484 6.5596 18.2866 6.64718C18.0892 6.73476 17.9138 6.86527 17.7732 7.02921ZM29.0851 9.15526C29.2053 9.07496 29.3466 9.03209 29.4911 9.03209C29.5871 9.03207 29.6821 9.05097 29.7708 9.08769C29.8594 9.1244 29.94 9.17823 30.0079 9.24609C30.0757 9.31395 30.1296 9.39452 30.1663 9.48318C30.203 9.57185 30.2219 9.66688 30.2219 9.76285C30.2219 9.90738 30.179 10.0487 30.0987 10.1688C30.0184 10.289 29.9043 10.3827 29.7708 10.438C29.6373 10.4933 29.4903 10.5078 29.3486 10.4796C29.2068 10.4514 29.0766 10.3818 28.9744 10.2796C28.8722 10.1774 28.8026 10.0472 28.7744 9.90544C28.7462 9.76369 28.7607 9.61675 28.816 9.48322C28.8713 9.34969 28.9649 9.23556 29.0851 9.15526Z" clip-rule="evenodd" fill-rule="evenodd"></path>
</g>
<defs>
<clipPath id="clip0_7668_162125">
<rect transform="translate(0.5625 0.899994)" fill="white" height="13.4" width="33.1278"></rect>
</clipPath>
</defs>
</svg>
