<svg xmlns="http://www.w3.org/2000/svg" fill="none" viewBox="0 0 26 16" height="16" width="26">
<g clip-path="url(#clip0_7668_162106)">
<path fill="#FF5F00" d="M16.4054 1.62485H9.64844V13.5751H16.4054V1.62485Z"></path>
<path fill="#EB001B" d="M10.0782 7.59996C10.0771 6.44906 10.3421 5.31302 10.8531 4.27782C11.3641 3.24262 12.1077 2.3354 13.0276 1.62485C11.8884 0.743597 10.5203 0.195559 9.07958 0.0433751C7.63887 -0.108809 6.18372 0.140996 4.88045 0.764249C3.57718 1.3875 2.47837 2.35905 1.70962 3.56785C0.94087 4.77665 0.533203 6.17392 0.533203 7.59996C0.533203 9.026 0.94087 10.4233 1.70962 11.6321C2.47837 12.8409 3.57718 13.8124 4.88045 14.4357C6.18372 15.0589 7.63887 15.3087 9.07958 15.1565C10.5203 15.0044 11.8884 14.4563 13.0276 13.5751C12.1077 12.8645 11.3641 11.9573 10.8531 10.9221C10.3421 9.88689 10.0771 8.75085 10.0782 7.59996Z"></path>
<path fill="#F79E1B" d="M25.5214 7.59996C25.5214 9.02598 25.1138 10.4232 24.3451 11.632C23.5764 12.8408 22.4776 13.8124 21.1744 14.4356C19.8711 15.0589 18.416 15.3087 16.9753 15.1565C15.5346 15.0044 14.1665 14.4563 13.0273 13.5751C13.9465 12.8638 14.6895 11.9564 15.2004 10.9214C15.7113 9.88636 15.9768 8.75067 15.9768 7.59996C15.9768 6.44925 15.7113 5.31355 15.2004 4.27852C14.6895 3.24348 13.9465 2.33612 13.0273 1.62485C14.1665 0.743594 15.5346 0.195555 16.9753 0.0433731C18.416 -0.108809 19.8711 0.141007 21.1744 0.764267C22.4776 1.38753 23.5764 2.35908 24.3451 3.56787C25.1138 4.77667 25.5214 6.17394 25.5214 7.59996Z"></path>
<path fill="#F79E1B" d="M24.7859 12.3094V12.0647H24.8861V12.0149H24.6309V12.0647H24.7311V12.3094H24.7859ZM25.2815 12.3094V12.0144H25.2033L25.1133 12.2173L25.0232 12.0144H24.9449V12.3094H25.0002V12.0868L25.0846 12.2787H25.1419L25.2263 12.0864V12.3094H25.2815Z"></path>
</g>
<defs>
<clipPath id="clip0_7668_162106">
<rect transform="translate(0.390625 -3.05176e-05)" fill="white" height="15.2" width="25.2583"></rect>
</clipPath>
</defs>
</svg>
