<svg xmlns="http://www.w3.org/2000/svg" fill="none" viewBox="0 0 46 15" height="15" width="46">
<g clip-path="url(#clip0_7668_162137)">
<path fill="#4A4A49" d="M43.1405 4.53453C43.1405 4.37539 43.1697 4.22619 43.2283 4.08694C43.2868 3.94769 43.3663 3.82624 43.4667 3.72259C43.567 3.61894 43.6847 3.53727 43.8195 3.4776C43.9544 3.41792 44.0992 3.38808 44.2539 3.38808C44.4108 3.38808 44.5577 3.41792 44.6946 3.4776C44.8316 3.53727 44.9508 3.61894 45.0522 3.72259C45.1536 3.82624 45.2336 3.94769 45.2921 4.08694C45.3507 4.22619 45.38 4.37539 45.38 4.53453C45.38 4.69368 45.3507 4.84287 45.2921 4.98212C45.2336 5.12137 45.1536 5.24282 45.0522 5.34647C44.9508 5.45012 44.8316 5.53179 44.6946 5.59147C44.5577 5.65115 44.4108 5.68098 44.2539 5.68098C44.0992 5.68098 43.9544 5.65115 43.8195 5.59147C43.6847 5.53179 43.567 5.45012 43.4667 5.34647C43.3663 5.24282 43.2868 5.12137 43.2283 4.98212C43.1697 4.84287 43.1405 4.69367 43.1405 4.53453ZM43.3694 4.53453C43.3694 4.66645 43.3919 4.78895 43.4369 4.90202C43.4818 5.0151 43.544 5.11352 43.6235 5.19728C43.7029 5.28104 43.7965 5.34699 43.9042 5.39516C44.0119 5.44332 44.1285 5.4674 44.2539 5.4674C44.3815 5.4674 44.4996 5.44332 44.6084 5.39516C44.7171 5.34699 44.8117 5.28104 44.8922 5.19728C44.9727 5.11352 45.036 5.0151 45.082 4.90202C45.128 4.78895 45.151 4.66645 45.151 4.53453C45.151 4.40261 45.128 4.28011 45.082 4.16704C45.036 4.05396 44.9727 3.95555 44.8922 3.87179C44.8117 3.78803 44.7171 3.72207 44.6084 3.67391C44.4996 3.62574 44.3815 3.60166 44.2539 3.60166C44.1285 3.60166 44.0119 3.62574 43.9042 3.67391C43.7965 3.72207 43.7029 3.78803 43.6235 3.87179C43.544 3.95555 43.4818 4.05396 43.4369 4.16704C43.3919 4.28011 43.3694 4.40261 43.3694 4.53453ZM43.8713 4.0414C43.8713 3.9723 43.9058 3.93775 43.9748 3.93775H44.3292C44.4421 3.93775 44.532 3.9702 44.599 4.03512C44.6659 4.10003 44.6993 4.18798 44.6993 4.29896C44.6993 4.34503 44.6925 4.38586 44.6789 4.42146C44.6653 4.45705 44.6481 4.48794 44.6272 4.51411C44.6063 4.54029 44.5833 4.56175 44.5582 4.5785C44.5331 4.59526 44.508 4.60677 44.4829 4.61305V4.61934C44.485 4.62143 44.4881 4.62562 44.4923 4.6319C44.4965 4.63609 44.5007 4.64289 44.5049 4.65232C44.509 4.66174 44.5153 4.67273 44.5237 4.6853L44.6868 5.00254C44.7056 5.03813 44.7098 5.06693 44.6993 5.08891C44.6889 5.1109 44.6659 5.12189 44.6303 5.12189H44.5927C44.5341 5.12189 44.4934 5.09677 44.4704 5.04651L44.2884 4.66331H44.094V5.02138C44.094 5.08839 44.0616 5.12189 43.9967 5.12189H43.9685C43.9037 5.12189 43.8713 5.08839 43.8713 5.02138V4.0414ZM44.2822 4.49998C44.3428 4.49998 44.3899 4.48218 44.4233 4.44658C44.4568 4.41099 44.4735 4.36178 44.4735 4.29896C44.4735 4.23823 44.4568 4.19112 44.4233 4.15761C44.3899 4.12411 44.3438 4.10736 44.2853 4.10736H44.094V4.49998H44.2822ZM35.1394 5.25099C35.494 5.25099 35.7947 5.29624 36.0415 5.38675C36.2883 5.47727 36.4812 5.56082 36.6203 5.6374C36.7385 5.70007 36.808 5.78362 36.8289 5.88805C36.8497 5.99249 36.8323 6.10389 36.7767 6.22225L36.6724 6.41024C36.6099 6.53556 36.5299 6.60867 36.4326 6.62956C36.3352 6.65044 36.2205 6.63304 36.0884 6.57734C35.9702 6.52164 35.8277 6.4642 35.6608 6.40502C35.494 6.34584 35.2993 6.31625 35.0768 6.31625C34.8474 6.31625 34.6701 6.3615 34.5449 6.45201C34.4198 6.54253 34.3572 6.67133 34.3572 6.83843C34.3572 6.98464 34.4215 7.103 34.5501 7.19352C34.6788 7.28403 34.8421 7.3641 35.0403 7.43372C35.2385 7.50335 35.4505 7.57819 35.6765 7.65826C35.9024 7.73833 36.1145 7.84103 36.3126 7.96635C36.5108 8.09168 36.6742 8.25181 36.8028 8.44676C36.9314 8.64171 36.9957 8.88888 36.9957 9.18827C36.9957 9.42499 36.9488 9.64257 36.8549 9.841C36.7611 10.0394 36.6255 10.2118 36.4482 10.358C36.2709 10.5042 36.0571 10.6191 35.8068 10.7026C35.5565 10.7862 35.2784 10.8279 34.9725 10.8279C34.5414 10.8279 34.1782 10.7653 33.8827 10.6399C33.5872 10.5146 33.3595 10.3963 33.1996 10.2849C33.0814 10.2152 33.0153 10.1282 33.0014 10.0238C32.9875 9.91933 33.0188 9.80793 33.0953 9.68957L33.2204 9.50158C33.2969 9.39018 33.3821 9.32752 33.4759 9.31359C33.5698 9.29967 33.6828 9.32752 33.8149 9.39714C33.94 9.46677 34.1017 9.54509 34.2998 9.63213C34.498 9.71916 34.7326 9.76267 35.0038 9.76267C35.2332 9.76267 35.414 9.71394 35.5461 9.61646C35.6782 9.51899 35.7443 9.3867 35.7443 9.2196C35.7443 9.07339 35.6799 8.95677 35.5513 8.86973C35.4227 8.7827 35.2593 8.70264 35.0612 8.62953C34.863 8.55642 34.6509 8.4781 34.425 8.39455C34.199 8.311 33.987 8.20656 33.7888 8.08123C33.5907 7.95591 33.4273 7.79577 33.2987 7.60082C33.17 7.40587 33.1057 7.15523 33.1057 6.84888C33.1057 6.59126 33.1596 6.3615 33.2674 6.15959C33.3751 5.95768 33.5211 5.79058 33.7054 5.65829C33.8896 5.526 34.1052 5.42505 34.352 5.35542C34.5988 5.2858 34.8613 5.25099 35.1394 5.25099ZM19.6372 5.25099C19.9918 5.25099 20.2925 5.29624 20.5394 5.38675C20.7862 5.47727 20.9791 5.56082 21.1182 5.6374C21.2364 5.70007 21.3059 5.78362 21.3267 5.88805C21.3476 5.99249 21.3302 6.10389 21.2746 6.22225L21.1703 6.41024C21.1077 6.53556 21.0278 6.60867 20.9304 6.62956C20.8331 6.65044 20.7184 6.63304 20.5863 6.57734C20.4681 6.52164 20.3256 6.4642 20.1587 6.40502C19.9918 6.34584 19.7972 6.31625 19.5747 6.31625C19.3452 6.31625 19.1679 6.3615 19.0428 6.45201C18.9176 6.54253 18.8551 6.67133 18.8551 6.83843C18.8551 6.98464 18.9194 7.103 19.048 7.19352C19.1766 7.28403 19.34 7.3641 19.5382 7.43372C19.7363 7.50335 19.9484 7.57819 20.1743 7.65826C20.4003 7.73833 20.6124 7.84103 20.8105 7.96635C21.0087 8.09168 21.172 8.25181 21.3007 8.44676C21.4293 8.64171 21.4936 8.88888 21.4936 9.18827C21.4936 9.42499 21.4467 9.64257 21.3528 9.841C21.259 10.0394 21.1234 10.2118 20.9461 10.358C20.7688 10.5042 20.555 10.6191 20.3047 10.7026C20.0544 10.7862 19.7763 10.8279 19.4704 10.8279C19.0393 10.8279 18.676 10.7653 18.3806 10.6399C18.0851 10.5146 17.8574 10.3963 17.6975 10.2849C17.5793 10.2152 17.5132 10.1282 17.4993 10.0238C17.4854 9.91933 17.5167 9.80793 17.5932 9.68957L17.7183 9.50158C17.7948 9.39018 17.88 9.32752 17.9738 9.31359C18.0677 9.29967 18.1807 9.32752 18.3128 9.39714C18.4379 9.46677 18.5996 9.54509 18.7977 9.63213C18.9959 9.71916 19.2305 9.76267 19.5017 9.76267C19.7311 9.76267 19.9119 9.71394 20.044 9.61646C20.1761 9.51899 20.2421 9.3867 20.2421 9.2196C20.2421 9.07339 20.1778 8.95677 20.0492 8.86973C19.9206 8.7827 19.7572 8.70264 19.559 8.62953C19.3609 8.55642 19.1488 8.4781 18.9229 8.39455C18.6969 8.311 18.4848 8.20656 18.2867 8.08123C18.0885 7.95591 17.9252 7.79577 17.7965 7.60082C17.6679 7.40587 17.6036 7.15523 17.6036 6.84887C17.6036 6.59126 17.6575 6.3615 17.7652 6.15959C17.873 5.95768 18.019 5.79058 18.2033 5.65829C18.3875 5.526 18.603 5.42505 18.8499 5.35542C19.0967 5.2858 19.3591 5.25099 19.6372 5.25099ZM38.6534 3.28757C38.9454 3.28757 39.0914 3.43378 39.0914 3.7262V5.87761C39.0914 5.94723 39.0897 6.00815 39.0862 6.06037C39.0827 6.11259 39.0775 6.15959 39.0706 6.20136C39.0636 6.2501 39.0601 6.29188 39.0601 6.32669H39.081C39.1436 6.20136 39.2322 6.0743 39.3469 5.94549C39.4616 5.81669 39.5972 5.70007 39.7537 5.59563C39.9101 5.49119 40.0874 5.40764 40.2855 5.34498C40.4837 5.28232 40.6975 5.25098 40.9269 5.25098C41.5179 5.25098 41.975 5.41112 42.2983 5.7314C42.6216 6.05167 42.7833 6.56689 42.7833 7.27707V10.264C42.7833 10.5564 42.6373 10.7026 42.3453 10.7026H41.8968C41.6048 10.7026 41.4588 10.5564 41.4588 10.264V7.5486C41.4588 7.22137 41.4032 6.95853 41.2919 6.7601C41.1807 6.56167 40.9582 6.46246 40.6245 6.46246C40.395 6.46246 40.1847 6.50771 39.9935 6.59823C39.8023 6.68874 39.6407 6.81232 39.5086 6.96898C39.3765 7.12563 39.2739 7.31188 39.2009 7.52772C39.1279 7.74355 39.0914 7.97679 39.0914 8.22744V10.264C39.0914 10.5564 38.9454 10.7026 38.6534 10.7026H38.205C37.9129 10.7026 37.7669 10.5564 37.7669 10.264V3.7262C37.7669 3.43378 37.9129 3.28757 38.205 3.28757H38.6534ZM31.7242 5.37631C32.0093 5.37631 32.1518 5.52252 32.1518 5.81495V10.264C32.1518 10.5564 32.0093 10.7026 31.7242 10.7026H31.2654C30.9803 10.7026 30.8378 10.5564 30.8378 10.264V5.81495C30.8378 5.52252 30.9803 5.37631 31.2654 5.37631H31.7242ZM22.8753 5.37631C23.1395 5.37631 23.296 5.50511 23.3446 5.76273L24.1998 8.87495C24.2137 8.95154 24.2259 9.02117 24.2363 9.08383C24.2467 9.14649 24.2589 9.20567 24.2728 9.26137C24.2867 9.32403 24.2972 9.38322 24.3041 9.43892H24.325C24.3319 9.38322 24.3423 9.32403 24.3563 9.26137C24.3702 9.20567 24.3823 9.14649 24.3928 9.08383C24.4032 9.02117 24.4188 8.95154 24.4397 8.87495L25.3366 5.76273C25.3853 5.51208 25.5452 5.38675 25.8163 5.38675H26.2126C26.4699 5.38675 26.6298 5.51208 26.6924 5.76273L27.5788 8.87496C27.5997 8.95154 27.6153 9.02117 27.6257 9.08383C27.6362 9.14649 27.6483 9.20567 27.6622 9.26137C27.6762 9.32404 27.6866 9.38322 27.6935 9.43892H27.7144C27.7213 9.38322 27.7318 9.32404 27.7457 9.26137C27.7596 9.20567 27.7718 9.14649 27.7822 9.08383C27.7926 9.02117 27.8083 8.95154 27.8291 8.87496L28.6739 5.76273C28.7364 5.50512 28.8963 5.37631 29.1536 5.37631H29.6333C29.7932 5.37631 29.9045 5.42157 29.9671 5.51208C30.0296 5.60259 30.0401 5.72095 29.9983 5.86717L28.6321 10.3371C28.5626 10.5808 28.3992 10.7026 28.142 10.7026H27.4432C27.179 10.7026 27.0157 10.5773 26.9531 10.3266L26.15 7.66348C26.1292 7.59386 26.1118 7.52424 26.0979 7.45461C26.084 7.38498 26.0701 7.32232 26.0562 7.26662C26.0423 7.20396 26.0318 7.14478 26.0249 7.08908H26.004C25.9901 7.14478 25.9762 7.20396 25.9623 7.26662C25.9484 7.32232 25.9345 7.38498 25.9206 7.45461C25.9067 7.52423 25.8893 7.59386 25.8685 7.66348L25.0654 10.3266C25.0029 10.5773 24.8429 10.7026 24.5857 10.7026H23.8661C23.6158 10.7026 23.4559 10.5808 23.3864 10.3371L22.0097 5.86717C21.968 5.72095 21.9802 5.60259 22.0462 5.51208C22.1123 5.42157 22.2218 5.37631 22.3747 5.37631H22.8753Z"></path>
<path fill="url(#paint0_linear_7668_162137)" d="M4.01172 13.8153C6.7812 15.1398 10.1991 14.4843 12.264 12.024C14.7114 9.10783 14.3313 4.76044 11.4149 2.31381L9.47617 4.62388C11.7546 6.53531 12.0516 9.9317 10.1395 12.2099C8.61489 14.0265 6.10469 14.6331 4.01172 13.8153Z" clip-rule="evenodd" fill-rule="evenodd"></path>
<path fill="url(#paint1_linear_7668_162137)" d="M4.01172 13.8153C6.7812 15.1398 10.1991 14.4843 12.264 12.024C12.5169 11.7227 12.7395 11.4061 12.9323 11.0779C13.2584 9.05153 12.5413 6.90974 10.8544 5.4946C10.4259 5.13505 9.96192 4.84538 9.47647 4.62418C11.7546 6.53564 12.0515 9.93183 10.1395 12.21C8.61489 14.0265 6.10469 14.6331 4.01172 13.8153Z" clip-rule="evenodd" fill-rule="evenodd"></path>
<path fill="url(#paint2_linear_7668_162137)" d="M9.95536 1.37128C7.1859 0.0467476 3.76798 0.702241 1.7031 3.16257C-0.744348 6.07872 -0.364209 10.4261 2.55216 12.8727L4.49093 10.5627C2.21251 8.65124 1.91554 5.25485 3.8276 2.9766C5.35221 1.16002 7.86241 0.553484 9.95536 1.37128Z" clip-rule="evenodd" fill-rule="evenodd"></path>
<path fill="url(#paint3_linear_7668_162137)" d="M9.95631 1.37131C7.18684 0.046778 3.76893 0.702271 1.70404 3.1626C1.45115 3.46393 1.22854 3.78055 1.03572 4.10874C0.709621 6.13508 1.42674 8.27686 3.11359 9.69201C3.54218 10.0515 4.00612 10.3412 4.49156 10.5624C2.21344 8.65096 1.91656 5.25478 3.82854 2.97663C5.35315 1.16005 7.86335 0.553514 9.95631 1.37131Z" clip-rule="evenodd" fill-rule="evenodd"></path>
</g>
<defs>
<linearGradient gradientUnits="userSpaceOnUse" y2="5.12999" x2="6.28442" y1="10.964" x1="9.21322" id="paint0_linear_7668_162137">
<stop stop-color="#EF2131"></stop>
<stop stop-color="#FECF2C" offset="1"></stop>
</linearGradient>
<linearGradient gradientUnits="userSpaceOnUse" y2="14.8368" x2="6.46134" y1="5.94837" x1="11.5961" id="paint1_linear_7668_162137">
<stop stop-color="#FBC52C"></stop>
<stop stop-color="#F87130" offset="0.26392"></stop>
<stop stop-color="#EF52E2" offset="0.5608"></stop>
<stop stop-color="#661EEC" offset="1"></stop>
</linearGradient>
<linearGradient gradientUnits="userSpaceOnUse" y2="10.0783" x2="7.61717" y1="4.36947" x1="4.81044" id="paint2_linear_7668_162137">
<stop stop-color="#78F6D8"></stop>
<stop stop-color="#77D1F6" offset="0.26571"></stop>
<stop stop-color="#70A4F3" offset="0.55447"></stop>
<stop stop-color="#661EEC" offset="1"></stop>
</linearGradient>
<linearGradient gradientUnits="userSpaceOnUse" y2="0.3402" x2="7.49887" y1="9.19779" x1="2.40491" id="paint3_linear_7668_162137">
<stop stop-color="#536EED"></stop>
<stop stop-color="#54C3EC" offset="0.24666"></stop>
<stop stop-color="#64D769" offset="0.5642"></stop>
<stop stop-color="#FECF2C" offset="1"></stop>
</linearGradient>
<clipPath id="clip0_7668_162137">
<rect transform="translate(0.0898438 0.700043)" fill="white" height="13.8" width="45.3205"></rect>
</clipPath>
</defs>
</svg>
