<svg xmlns="http://www.w3.org/2000/svg" fill="none" viewBox="0 0 34 11" height="11" width="34">
<path fill="#1434CB" d="M12.7307 0.406002L8.35911 10.8363H5.50699L3.35572 2.51244C3.22506 1.99968 3.11161 1.81196 2.71441 1.596C2.06594 1.24409 0.994909 0.914091 0.0527344 0.709152L0.116735 0.406002H4.70793C5.29314 0.406002 5.81918 0.795583 5.95203 1.46956L7.0882 7.50512L9.89626 0.406002H12.7307ZM23.9061 7.43084C23.9176 4.67805 20.0995 4.52633 20.1258 3.29664C20.134 2.92239 20.4904 2.52453 21.2703 2.42284C21.6569 2.37219 22.7221 2.33355 23.9303 2.88963L24.4042 0.677893C23.755 0.442315 22.9197 0.215485 21.8803 0.215485C19.2134 0.215485 17.3365 1.63329 17.3207 3.66332C17.3035 5.16491 18.6604 6.00279 19.6826 6.50172C20.7342 7.01275 21.087 7.34102 21.0831 7.79814C21.0755 8.49787 20.2443 8.80674 19.4674 8.81883C18.1113 8.83966 17.3243 8.45182 16.6969 8.16016L16.2079 10.4452C16.8384 10.7344 18.002 10.9868 19.2085 10.9994C22.0432 10.9994 23.8974 9.59925 23.9061 7.43084ZM30.9486 10.8363H33.444L31.2657 0.406002H28.9624C28.4445 0.406002 28.0077 0.707482 27.8142 1.17125L23.7653 10.8363H26.5985L27.1611 9.27829H30.6228L30.9486 10.8363ZM27.938 7.14053L29.3581 3.22432L30.1755 7.14053H27.938ZM16.5859 0.406002L14.3548 10.8363H11.6567L13.8887 0.406002H16.5859Z"></path>
</svg>
